<?xml version="1.0" encoding="UTF-8" standalone="no"?>
<!-- Created with Inkscape (http://www.inkscape.org/) -->

<svg
   xmlns:dc="http://purl.org/dc/elements/1.1/"
   xmlns:cc="http://creativecommons.org/ns#"
   xmlns:rdf="http://www.w3.org/1999/02/22-rdf-syntax-ns#"
   xmlns:svg="http://www.w3.org/2000/svg"
   xmlns="http://www.w3.org/2000/svg"
   xmlns:xlink="http://www.w3.org/1999/xlink"
   xmlns:sodipodi="http://sodipodi.sourceforge.net/DTD/sodipodi-0.dtd"
   xmlns:inkscape="http://www.inkscape.org/namespaces/inkscape"
   width="219.68504"
   height="311.81104"
   id="svg11644"
   version="1.1"
   inkscape:version="0.48+devel r10019 custom"
   sodipodi:docname="Justice.svg">
  <defs
     id="defs3" />
  <sodipodi:namedview
     id="base"
     pagecolor="#ffffff"
     bordercolor="#666666"
     borderopacity="1.0"
     inkscape:pageopacity="0.0"
     inkscape:pageshadow="2"
     inkscape:zoom="1.5800817"
     inkscape:cx="110.74842"
     inkscape:cy="156.27589"
     inkscape:document-units="mm"
     inkscape:current-layer="layer2"
     showgrid="false"
     units="mm"
     inkscape:window-width="1280"
     inkscape:window-height="739"
     inkscape:window-x="0"
     inkscape:window-y="26"
     inkscape:window-maximized="1"
     showguides="true"
     inkscape:guide-bbox="true" />
  <metadata
     id="metadata11648">
    <rdf:RDF>
      <cc:Work
         rdf:about="">
        <dc:format>image/svg+xml</dc:format>
        <dc:type
           rdf:resource="http://purl.org/dc/dcmitype/StillImage" />
        <dc:title></dc:title>
      </cc:Work>
    </rdf:RDF>
  </metadata>
  <g
     inkscape:label="bg"
     inkscape:groupmode="layer"
     id="layer1"
     transform="translate(0,120.47251)"
     style="display:inline"
     sodipodi:insensitive="true">
    <rect
       style="fill:#000000;fill-opacity:1;stroke:none"
       id="rect19803"
       width="219.19548"
       height="313.27493"
       x="1.1506772"
       y="-1.1023179"
       transform="translate(0,-120.47251)"
       ry="0"
       rx="9.8346527e-17" />
  </g>
  <g
     inkscape:groupmode="layer"
     id="layer4"
     inkscape:label="travel"
     style="display:inline" />
  <g
     inkscape:groupmode="layer"
     id="layer5"
     inkscape:label="mbg"
     style="display:inline" />
  <g
     inkscape:groupmode="layer"
     id="layer2"
     inkscape:label="fg"
     style="display:inline">
    <path
       style="fill:#666666;fill-opacity:1;stroke:none;display:inline"
       d="m 166.11408,46.988527 c -15.56222,-6.020599 -35.99873,-11.758777 -46.54056,1.248294 -16.53185,18.051594 -16.49134,37.08664 -11.68012,59.988229 4.40567,19.65351 20.93778,10.91565 19.77848,46.30302 9.41674,11.4019 15.15933,12.83381 26.66983,3.76028 10.01993,-7.18453 12.05355,1.93786 9.34721,-10.31244 -12.15603,-28.10945 15.79967,-39.77463 7.41791,-66.329679 -0.84055,-19.416882 -11.42716,-41.524943 -27.02173,-43.34966 -21.62401,-3.300587 -38.95084,8.033474 -42.4007,30.112131 -1.66656,6.947615 -8.280764,9.517369 -10.196254,16.402929 0.0589,-16.862962 6.63817,-33.857879 19.882954,-44.696334 12.66642,-11.544947 33.53121,-16.069958 47.95474,-5.113514 13.92459,9.621189 22.15299,26.248935 21.70241,43.147898 0.43658,21.58534 -7.84798,27.443669 -6.93049,49.044339 -1.18632,18.8958 -16.74789,53.01715 -36.65828,52.00527 -14.10479,-1.51039 -15.32042,-23.30976 -21.51381,-34.3624 C 102.11044,120.22602 86.279606,98.903191 94.797316,70.810895 100.45915,52.927442 113.53067,35.534672 132.24411,30.362826 c 7.36172,-1.637238 27.83064,11.933382 33.86997,16.625701 z"
       id="path7238-4"
       inkscape:connector-curvature="0"
       sodipodi:nodetypes="ccccccccccccccccccc" />
    <path
       style="fill:none;stroke:none"
       d="M 176.66092,79.673921 C 172.5303,65.900929 168.90588,50.83733 158.24076,40.482593 151.54107,33.837304 140.95171,33.623767 132.81575,37.569524 109.32864,45.932657 94.898066,72.74905 99.762246,97.007481 c 2.112864,10.198859 7.582554,19.266129 11.922944,28.620909 6.43656,12.79122 13.30363,25.42912 18.21942,38.91258 5.81464,6.18571 15.61707,8.84523 23.2221,4.34206 11.80314,-6.8436 18.52689,-20.60155 19.39964,-33.92125 0.0196,-18.50395 5.11076,-36.732699 4.13457,-55.287859 z"
       id="path7888"
       inkscape:connector-curvature="0" />
    <flowRoot
       xml:space="preserve"
       style="font-size:28.44529533px;font-style:normal;font-variant:normal;font-weight:normal;font-stretch:normal;text-align:start;line-height:107.00000525%;letter-spacing:0px;word-spacing:0px;writing-mode:lr-tb;text-anchor:start;fill:#a02c2c;fill-opacity:1;stroke:none;font-family:Sans;-inkscape-font-specification:Sans"
       id="flowRoot7902"><flowRegion
         id="flowRegion7904"><use
           x="0"
           y="0"
           xlink:href="#path7888"
           id="use7906"
           width="219.68504"
           height="311.81104" /></flowRegion><flowPara
         id="flowPara7908">ttttttttttttteeeee.ueeooeeeeeeiich</flowPara><flowPara
         id="flowPara7910" /></flowRoot>    <flowRoot
       xml:space="preserve"
       style="font-size:10px;font-style:normal;font-variant:normal;font-weight:normal;font-stretch:normal;text-align:start;line-height:107.00000525%;letter-spacing:0px;word-spacing:0px;writing-mode:lr-tb;text-anchor:start;fill:#e3dbdb;fill-opacity:1;stroke:none;font-family:Symbol;-inkscape-font-specification:Symbol"
       id="flowRoot7916"><flowRegion
         id="flowRegion7918"><use
           x="0"
           y="0"
           xlink:href="#path7888"
           id="use7920"
           width="219.68504"
           height="311.81104"
           transform="translate(21.517874,24.049389)" /></flowRegion><flowPara
         id="flowPara7922">euuaeuc;.pcraeu arch acedhuuuup;.y aeruh ;,.prh.y;.y aeurh.rh;.y;.,y raeurh;.y;.y;.y aeruhrrpyrrpy;.y;.y;.y;.y r.eayrrrrrrrpy  r,p.ycrc rcr,pyr</flowPara></flowRoot>    <g
       id="g7879"
       transform="translate(13.62306,-27.486336)">
      <path
         inkscape:connector-curvature="0"
         id="path7867"
         d="M 91.467134,89.24101 C 72.137756,54.890304 21.195307,81.784006 27.020018,117.16865 c -4.288443,30.91136 21.712148,48.96008 43.690739,63.17468 9.740555,23.96648 51.318023,30.13812 47.918783,-3.73196 -0.97105,-24.80272 -13.18461,-46.93838 -17.45872,-71.23406 -1.217196,-6.819999 -10.070027,-9.462084 -9.703686,-16.1363 z"
         style="fill:#ffd5d5;fill-opacity:1;stroke:#000000;stroke-width:1px;stroke-linecap:butt;stroke-linejoin:miter;stroke-opacity:1;display:inline" />
      <path
         sodipodi:nodetypes="ccccccccccccccccccc"
         inkscape:connector-curvature="0"
         id="path7238"
         d="M 79.899244,77.606051 C 63.214136,77.79979 42.10875,80.06708 37.155501,96.060176 28.515815,118.96254 35.627149,136.61937 48.60442,156.09297 c 11.39373,16.60882 23.494786,2.35312 35.569021,35.63708 12.979514,7.08596 18.842969,6.28129 26.157289,-6.41994 6.63248,-10.39359 11.9105,-2.68021 4.84556,-13.04751 C 93.444873,150.68356 115.0636,129.46497 97.413807,107.92642 89.417821,90.212405 71.373644,73.621733 56.217762,77.722885 34.915777,82.694496 23.041695,99.655812 28.04367,121.43537 c 1.034648,7.06939 -4.150935,11.91306 -3.370456,19.01735 -6.211865,-15.67724 -6.419353,-33.90005 1.849181,-48.884308 7.469052,-15.425219 25.158069,-27.379869 42.620264,-22.568068 16.502797,3.757578 30.321062,16.13675 36.182681,31.992966 8.42677,19.8773 2.91255,28.39476 11.79149,48.10758 5.92062,17.98347 4.15351,55.44419 -14.70706,61.90379 -13.65598,3.83934 -22.885549,-15.94715 -32.742745,-23.90671 -21.971668,-17.71443 -44.5927,-31.62726 -47.124526,-60.87309 -1.38942,-18.70678 4.282573,-39.711588 19.733948,-51.467278 6.226084,-4.255714 30.272221,0.736488 37.622797,2.848449 z"
         style="fill:#666666;fill-opacity:1;stroke:none" />
      <path
         id="path7767"
         d="m 57.3125,129.90625 c -0.07055,0.0102 -0.123223,0.0175 -0.1875,0.0312 0.02921,0.008 0.06785,0.0256 0.09375,0.0312 L 57,130.125 c 0.140432,0.0188 0.275562,0.0926 0.40625,0.15625 0.02046,0.005 0.04302,-0.005 0.0625,0 0.09439,-0.037 0.158229,-0.0917 0.28125,-0.125 0.03704,-0.0181 0.09544,-0.0475 0.125,-0.0625 -0.130553,-0.0693 -0.281472,-0.11336 -0.4375,-0.1875 -0.04225,0.004 -0.08372,-0.006 -0.125,0 z M 58,130.1875 c 0.01424,0.004 0.03059,0.0285 0.03125,0.0312 -0.0078,-0.005 0.0084,-0.0257 0,-0.0312 -0.006,-0.004 -0.02497,0.004 -0.03125,0 z m -0.96875,0.21875 c 0.005,0.0103 -0.005,0.0213 0,0.0312 0.02462,-0.0147 0.0644,-0.0149 0.09375,-0.0312 -0.02803,0.001 -0.06599,1e-5 -0.09375,0 z"
         style="fill:#666666;fill-opacity:1;stroke:none"
         inkscape:connector-curvature="0" />
      <path
         sodipodi:nodetypes="ccccccccc"
         inkscape:connector-curvature="0"
         id="path7769"
         d="m 58.188847,128.27918 c -18.919095,0.52228 -1.56636,32.42661 8.409564,14.51596 7.486997,-14.44774 25.292855,-0.1261 30.685656,-12.52899 5.014913,-17.43114 -17.234775,-16.61822 -24.012469,-1.5599 -6.020716,3.52854 -21.147954,0.55637 -22.005341,1.2531 6.816454,-8.00551 23.629917,-3.49046 28.090972,-15.76262 13.998728,-10.33422 29.304001,16.64613 12.135039,22.41857 -11.962106,0.73518 -22.969685,3.25482 -31.232772,12.06083 -13.378492,2.7334 -16.730916,-23.99102 -2.070649,-20.39695 z"
         style="fill:#666666;fill-opacity:1;stroke:none" />
      <path
         inkscape:connector-curvature="0"
         id="path7773"
         d="m 82.006464,149.82966 c -4.76249,-0.60713 -0.726201,5.18505 -2.228981,7.37282 -1.017833,2.65412 2.173696,4.58487 3.58231,1.74683 2.777362,-1.40566 6.886028,-5.2042 2.774587,-7.73447 -1.82677,-1.85948 -4.250017,0.10398 -5.629308,0.42082 1.546363,-3.65275 6.97421,-1.79548 8.070123,1.32032 0.907186,3.82744 -4.022348,5.86792 -6.464651,7.99858 -4.909303,1.34123 -2.298137,-4.59494 -2.810242,-7.05341 -2.012299,-0.83768 -0.04813,-6.2662 1.323416,-3.31727 -2.772368,2.64851 -2.872514,-4.31346 1.382746,-0.75422 z"
         style="fill:#666666;fill-opacity:1;stroke:none" />
      <path
         inkscape:connector-curvature="0"
         id="path7775"
         d="m 91.89501,178.41904 c 0.544665,-2.30479 2.818908,-3.46192 4.659323,-4.62089 1.185354,-0.72565 2.124571,-1.91628 3.574447,-2.12394 1.13129,-0.21857 2.62153,-0.15123 3.32117,0.89953 0.81752,1.22358 -0.58713,1.90133 -1.41276,2.4807 -1.40029,1.16456 -2.289091,2.82249 -3.661936,4.00308 -1.943519,1.15678 -3.831918,2.4372 -5.456862,4.02188 -1.075635,0.34225 -2.295278,-0.58665 -1.911372,-1.7534 0.163455,-1.37731 1.122428,-2.43969 1.804821,-3.58439 1.156846,-0.89613 1.049569,1.13147 0.126671,1.40703 -0.611727,0.72032 -1.315565,1.87073 -0.841179,2.81008 0.975072,0.64621 1.666582,-0.95098 2.471113,-1.33997 1.720501,-1.22719 3.944487,-2.03675 4.911476,-4.06075 0.798798,-1.29591 2.359218,-1.90543 3.115078,-3.22353 0.0664,-1.31266 -1.91608,-1.13932 -2.727435,-0.70455 -2.16577,0.84622 -3.70002,2.73043 -5.756859,3.75099 -0.800421,0.48179 -1.031071,2.51335 -2.215696,2.03813 z"
         style="fill:#666666;fill-opacity:1;stroke:none" />
      <path
         inkscape:connector-curvature="0"
         id="path7777"
         d="m 94.775701,170.20162 c -2.104143,-0.99666 -4.971743,0.94839 -5.71243,2.85375 1.570471,0.77837 3.229042,-1.36407 5.03062,-1.3463 1.243999,-0.36005 5.016721,-1.06789 2.947989,-2.67525 -0.636172,0.098 -4.082606,1.43138 -2.709098,-0.11089 1.554998,-1.4368 5.857088,-0.0728 3.728291,2.14456 -2.062168,1.47338 -4.813807,1.22868 -6.924827,2.60341 -1.64905,1.53003 -4.206511,-0.14557 -2.346752,-1.9919 1.586559,-1.22526 3.38352,-3.17515 5.559417,-2.72929 0.560373,0.15956 0.676825,0.80013 0.42679,1.25191 z"
         style="fill:#666666;fill-opacity:1;stroke:none" />
    </g>
  </g>
  <g
     inkscape:groupmode="layer"
     id="layer3"
     inkscape:label="txt"
     style="display:inline">
    <text
       xml:space="preserve"
       style="font-size:28.44529533px;font-style:normal;font-variant:normal;font-weight:normal;font-stretch:normal;text-align:center;line-height:107.00000525%;letter-spacing:0px;word-spacing:0px;writing-mode:lr-tb;text-anchor:middle;fill:#ffffff;fill-opacity:1;stroke:none;font-family:Nimbus Mono L;-inkscape-font-specification:Nimbus Mono L"
       x="106.50785"
       y="293.01553"
       id="text22735"
       sodipodi:linespacing="107.00001%"><tspan
         sodipodi:role="line"
         id="tspan22737"
         x="106.50785"
         y="293.01553">Justice</tspan></text>
  </g>
</svg>
