<?xml version="1.0" encoding="UTF-8" standalone="no"?>
<!-- Created with Inkscape (http://www.inkscape.org/) -->

<svg
   xmlns:dc="http://purl.org/dc/elements/1.1/"
   xmlns:cc="http://creativecommons.org/ns#"
   xmlns:rdf="http://www.w3.org/1999/02/22-rdf-syntax-ns#"
   xmlns:svg="http://www.w3.org/2000/svg"
   xmlns="http://www.w3.org/2000/svg"
   xmlns:xlink="http://www.w3.org/1999/xlink"
   xmlns:sodipodi="http://sodipodi.sourceforge.net/DTD/sodipodi-0.dtd"
   xmlns:inkscape="http://www.inkscape.org/namespaces/inkscape"
   width="219.68504"
   height="311.81104"
   id="svg11644"
   version="1.1"
   inkscape:version="0.48+devel r10021 custom"
   sodipodi:docname="Moon.svg">
  <defs
     id="defs3">
    <linearGradient
       inkscape:collect="always"
       id="linearGradient4329">
      <stop
         style="stop-color:#ff0000;stop-opacity:1;"
         offset="0"
         id="stop4331" />
      <stop
         style="stop-color:#ff0000;stop-opacity:0;"
         offset="1"
         id="stop4333" />
    </linearGradient>
    <filter
       inkscape:collect="always"
       id="filter4093"
       x="-0.14402982"
       width="1.2880596"
       y="-0.071992547"
       height="1.1439851">
      <feGaussianBlur
         inkscape:collect="always"
         stdDeviation="6.5842322"
         id="feGaussianBlur4095" />
    </filter>
    <filter
       inkscape:collect="always"
       id="filter4277"
       x="-0.18904486"
       width="1.3780897"
       y="-0.1116487"
       height="1.2232974">
      <feGaussianBlur
         inkscape:collect="always"
         stdDeviation="0.87089532"
         id="feGaussianBlur4279" />
    </filter>
    <filter
       inkscape:collect="always"
       id="filter4281"
       x="-0.23020942"
       width="1.4604188"
       y="-0.10430622"
       height="1.2086124">
      <feGaussianBlur
         inkscape:collect="always"
         stdDeviation="0.87089532"
         id="feGaussianBlur4283" />
    </filter>
    <filter
       inkscape:collect="always"
       id="filter4285"
       x="-0.373542"
       width="1.747084"
       y="-0.12143885"
       height="1.2428777">
      <feGaussianBlur
         inkscape:collect="always"
         stdDeviation="0.87089532"
         id="feGaussianBlur4287" />
    </filter>
    <filter
       inkscape:collect="always"
       id="filter4325">
      <feGaussianBlur
         inkscape:collect="always"
         stdDeviation="0.26099991"
         id="feGaussianBlur4327" />
    </filter>
    <radialGradient
       inkscape:collect="always"
       xlink:href="#linearGradient4329"
       id="radialGradient4339"
       cx="110.02134"
       cy="199.65462"
       fx="110.02134"
       fy="199.65462"
       r="46.426167"
       gradientTransform="matrix(1.6465615,0.0299905,-0.02055059,1.4465537,-67.032544,-97.898099)"
       gradientUnits="userSpaceOnUse" />
  </defs>
  <sodipodi:namedview
     id="base"
     pagecolor="#ffffff"
     bordercolor="#666666"
     borderopacity="1.0"
     inkscape:pageopacity="0.0"
     inkscape:pageshadow="2"
     inkscape:zoom="9.3585517"
     inkscape:cx="119.53767"
     inkscape:cy="173.61178"
     inkscape:document-units="mm"
     inkscape:current-layer="layer3"
     showgrid="false"
     units="mm"
     inkscape:window-width="1280"
     inkscape:window-height="743"
     inkscape:window-x="0"
     inkscape:window-y="26"
     inkscape:window-maximized="1"
     showguides="true"
     inkscape:guide-bbox="true" />
  <metadata
     id="metadata11648">
    <rdf:RDF>
      <cc:Work
         rdf:about="">
        <dc:format>image/svg+xml</dc:format>
        <dc:type
           rdf:resource="http://purl.org/dc/dcmitype/StillImage" />
        <dc:title />
      </cc:Work>
    </rdf:RDF>
  </metadata>
  <g
     inkscape:label="bg"
     inkscape:groupmode="layer"
     id="layer1"
     transform="translate(0,120.47251)"
     style="display:inline"
     sodipodi:insensitive="true">
    <rect
       style="fill:#000000;fill-opacity:1;stroke:none"
       id="rect19803"
       width="219.19548"
       height="313.27493"
       x="1.1506772"
       y="-1.1023179"
       transform="translate(0,-120.47251)"
       ry="0"
       rx="9.8346527e-17" />
  </g>
  <g
     inkscape:groupmode="layer"
     id="layer4"
     inkscape:label="travel"
     style="display:none" />
  <g
     inkscape:groupmode="layer"
     id="layer5"
     inkscape:label="mbg"
     style="display:inline" />
  <g
     inkscape:groupmode="layer"
     id="layer2"
     inkscape:label="fg"
     style="display:inline" />
  <g
     inkscape:groupmode="layer"
     id="layer3"
     inkscape:label="txt"
     style="display:inline">
    <path
       style="opacity:0.28806589;fill:#cfe3d4;fill-opacity:1;stroke:none"
       d="m 377.87958,183.33473 c 8.13407,8.21101 27.06812,25.18182 28.94977,27.19818 -9.70673,-9.00454 -19.62246,-17.79389 -28.94977,-27.19818 z"
       id="path5239"
       inkscape:connector-curvature="0" />
    <path
       style="fill:#cbcbcb;fill-opacity:0.74107139;stroke:none"
       d="m 84.937125,32.102888 c -12.201461,4.748308 -3.861393,15.74705 -6.30092,23.8682 15.350693,8.434046 4.207911,26.81391 7.987526,40.205501 1.680436,15.297781 -26.312014,9.661261 -26.497774,27.034151 -7.846645,20.64696 4.030926,41.85202 -1.257954,62.78448 -1.103305,16.06392 0.681533,32.16761 -3.362964,47.77606 -10.201633,24.7203 24.940918,22.62632 40.931305,17.56227 18.498556,-1.17475 37.207236,7.18079 55.318026,2.3691 23.39898,-10.02485 7.14554,-37.9654 13.35296,-56.3308 2.29628,-21.73069 3.8219,-44.56462 -4.72579,-65.30749 -0.58679,-19.27589 -23.70769,-23.08124 -34.53833,-34.235654 0.12223,-14.858767 -5.405,-32.377459 3.90584,-44.173116 9.85064,-17.041612 -12.20724,-27.439034 -27.52883,-20.334608 -8.797515,-0.482433 -28.16721,1.763634 -8.509454,1.73393 15.713394,-1.237477 37.398264,-7.56655 37.929454,13.99611 -10.76311,8.854807 -6.88939,27.98347 -8.1256,43.025237 -1.51552,18.217511 27.45287,14.184941 31.70152,29.568101 8.33203,20.86793 12.28794,42.67407 9.44738,64.55137 -1.60672,18.36162 -3.0329,36.701 -1.99512,55.10614 -6.08829,16.85004 -30.87902,12.8243 -46.15733,9.96977 -20.065226,-8.96435 -49.14286,14.75094 -61.850231,-7.52097 5.404176,-13.72761 3.314668,-28.99865 5.254965,-43.43691 2.181759,-20.62375 2.105621,-41.2586 -1.51647,-61.64381 -1.922271,-19.18231 15.850435,-28.99599 30.25038,-37.19378 C 84.552872,88.242468 93.314429,68.370331 84.334583,58.88826 76.32178,53.192954 86.75033,43.773491 79.623094,36.262425 c 1.462622,-4.243865 14.526767,0.534932 5.314031,-4.159537 z m -3.643158,-1.963492 0.03756,0.06826 z m 0.90149,22.424005 -0.114946,0.127749 z m 45.412553,2.730473 0.18781,0.204785 z m -43.309077,3.617876 0.136109,0.269068 z"
       id="path834"
       inkscape:connector-curvature="0"
       sodipodi:nodetypes="ccccccccccccccccccccccccccccccccccccccc" />
    <path
       style="fill:#cbcbcb;fill-opacity:0.74107139;stroke:none"
       d="m 97.466048,39.698055 c -8.110399,11.819204 -2.71068,28.666876 -3.652674,42.666337 4.529066,17.501497 -2.930824,33.780618 -21.43642,40.341018 -11.595873,19.04883 -6.290515,40.42992 -6.456528,60.95064 -3.448664,19.93924 -3.416355,40.24852 -4.642373,60.31076 11.66106,5.07488 28.169771,-5.59391 42.460467,-0.59544 16.88708,0.68107 50.6134,10.71444 48.70849,-14.28847 -3.05067,-27.29169 7.67975,-54.08595 5.31419,-81.2613 -1.89191,-21.82551 -25.73162,-31.53612 -37.10669,-47.27448 C 119.8425,84.031822 118.7459,67.522194 118.95996,50.944512 119.39104,38.844543 105.76134,41.766281 97.466048,39.698055 z m 17.541492,205.331535 0.37353,0.13643 -0.37353,-0.13643 z M 97.428485,40.960899 c 7.286295,4.119028 21.263825,-2.242017 20.029345,12.569004 2.21835,16.987384 -3.00396,36.919547 5.07306,52.392367 15.45088,12.84871 33.89108,26.07461 34.61177,46.95403 -0.37039,21.74631 -6.89992,43.0888 -6.25245,64.97164 2.46476,14.64759 -3.39215,32.67306 -23.31422,25.99594 -19.75242,0.61712 -41.177795,-6.90762 -59.936916,1.96981 -10.310125,-13.82539 -0.305445,-42.58413 -0.291675,-61.89862 1.497852,-17.74831 -5.114265,-35.88787 2.9633,-53.03341 C 75.261388,115.99343 101.47578,114.2261 95.961241,94.149294 94.642003,77.523072 94.406103,60.635025 95.621519,44.054137 l 1.806966,-3.093238 z"
       id="path836"
       inkscape:connector-curvature="0" />
    <path
       style="fill:#cbcbcb;fill-opacity:0.74107139;stroke:none"
       d="m 69.09759,158.63439 c 20.010511,2.14496 39.43717,1.07898 59.84011,-3.46274 9.67671,-5.11478 40.14732,6.71068 15.58813,0.60959 -20.05428,1.07388 -39.84729,4.92738 -60.053328,5.8182 -6.366035,-0.32273 -10.600725,-3.60865 -15.374912,-2.96505 z"
       id="path838"
       inkscape:connector-curvature="0" />
    <path
       style="fill:#cbcbcb;fill-opacity:0.74107139;stroke:none"
       d="m 110.9884,166.86981 c -5.20166,9.01761 7.73682,23.98904 -2.54596,35.06061 7.80129,-3.87686 7.19633,-24.95058 1.97453,-33.56305 17.32647,3.51726 28.1473,21.95191 22.61171,37.68954 -4.34633,13.44483 -16.49794,27.93296 -33.810648,25.61128 -25.23675,2.34793 17.610488,-22.16223 4.518758,-21.92112 -1.18851,10.73611 -35.345634,21.35426 -11.348328,22.15689 19.180928,6.32663 36.107368,-7.69365 41.519068,-23.48011 7.0834,-16.2422 -3.8841,-34.60682 -21.22926,-40.63816 z m -7.28705,42.86842 -0.0504,-0.14124 z m 6.98655,-41.67384 0.11263,0.17066 z m -6.34799,41.40079 -0.18781,0.13653 z m 2.40397,0.34131 -0.13075,0.15748 z m -5.07088,4.9148 -0.40269,0.54214 z m -0.52587,0.64848 c -3.398869,5.91428 -4.590628,4.20715 0,0 z m -9.766139,9.72731 c -0.60284,3.09293 -4.889057,2.98667 0,0 z m -1.953229,2.38917 0.114838,-0.16098 z m -0.863927,0.13652 c -2.226437,2.84589 -6.23716,1.84134 0,0 z m -6.761175,1.09219 -0.251379,0.10452 z m 5.972371,2.04785 -0.112686,0.0683 z"
       id="path840"
       inkscape:connector-curvature="0"
       sodipodi:nodetypes="cccccccccccccccccccccccccccccccccccccccc" />
    <path
       style="fill:#000000;fill-opacity:0.74107139000000000;stroke:none"
       d="m 116.30304,198.7772 c 7.2907,-4.23014 4.60443,2.96934 0,0 z"
       id="path842"
       inkscape:connector-curvature="0" />
    <path
       style="fill:#cbcbcb;fill-opacity:0.74107139;stroke:none"
       d="m 100.71283,216.9334 c 9.27077,2.89293 17.07491,3.88209 2.4186,2.10804 l -1.40079,-0.68297 -1.01781,-1.42507 z"
       id="path844"
       inkscape:connector-curvature="0" />
    <path
       style="fill:#cbcbcb;fill-opacity:0.74107139;stroke:none"
       d="m 109.26054,201.78573 c -18.546238,1.26995 1.05752,15.87311 4.74666,6.68178 -12.83328,2.72671 -18.181812,1.0513 -4.74666,-6.68178 z m -5.55919,7.9525 -0.0504,-0.14124 0.0504,0.14124 z"
       id="path846"
       inkscape:connector-curvature="0" />
    <path
       style="fill:#800000;fill-opacity:0.74107139000000000;stroke:none"
       d="m 103.23055,124.36176 c -5.960878,6.91326 -19.978528,23.36887 -7.573758,6.57026 1.886963,-2.17811 3.574927,-8.0617 7.573758,-6.57026 z"
       id="path848"
       inkscape:connector-curvature="0" />
    <path
       style="fill:#800000;fill-opacity:0.74107139000000000;stroke:none"
       d="m 90.545559,128.73061 c 6.597676,3.3303 20.999241,17.87978 6.810515,6.55536 -0.944427,-2.56747 -9.246,-3.3218 -6.810515,-6.55536 z"
       id="path850"
       inkscape:connector-curvature="0" />
    <path
       style="fill:#800000;fill-opacity:0.74107139000000000;stroke:none"
       d="m 119.45306,127.11994 c -3.72711,6.30448 -18.19942,24.49285 -6.91439,6.88209 2.74532,-1.11885 3.12638,-8.82059 6.91439,-6.88209 z"
       id="path852"
       inkscape:connector-curvature="0" />
    <path
       style="fill:#800000;fill-opacity:0.74107139000000000;stroke:none"
       d="m 111.14213,129.86528 c 6.49079,5.9553 15.14982,21.86496 3.74673,6.95112 -0.48239,-1.47014 -7.48027,-5.22404 -3.74673,-6.95112 z"
       id="path854"
       inkscape:connector-curvature="0" />
    <path
       style="fill:#800000;fill-opacity:0.74107139000000000;stroke:none"
       d="m 136.61218,133.98517 c -7.42351,6.04908 -21.18439,21.16635 -8.01008,5.01871 1.83845,-1.71902 4.88725,-7.94293 8.01008,-5.01871 z"
       id="path856"
       inkscape:connector-curvature="0" />
    <path
       style="fill:#800000;fill-opacity:0.74107139000000000;stroke:none"
       d="m 124.78695,135.89759 c 6.80299,5.66941 18.95956,22.07944 5.45192,7.51081 -1.08405,-2.24139 -7.41911,-4.38862 -5.45192,-7.51081 z"
       id="path858"
       inkscape:connector-curvature="0" />
    <path
       style="fill:#cbcbcb;fill-opacity:0.74107139;stroke:none"
       d="m 157.00335,158.35917 c -19.15699,-3.05386 -39.39031,-0.69108 -58.354765,-1.86476 -8.481624,-1.78765 -35.813965,-2.02022 -28.821194,5.33743 18.200906,-0.17265 36.354309,-1.23598 54.396789,0.50244 7.87469,-0.55768 29.01884,-5.41053 29.20471,-5.53606 -22.39814,-0.96784 -44.7355,-0.92112 -67.020216,-2.5741 -9.982107,-2.95354 -31.155711,9.77327 -10.713788,8.83298 21.230324,-3.67045 42.553384,-3.07149 63.855494,-4.66751 7.42359,-1.94659 23.00323,-3.38462 6.44587,0.84426 -20.77996,2.492 -42.14666,-0.0487 -62.673769,4.76462 -21.141429,6.43691 -22.080888,-12.57131 -1.120003,-10.81704 18.918832,0.16305 37.729402,1.64965 56.729782,1.67993 8.74296,0.33182 26.44774,1.10649 8.95739,4.7996 -23.18025,7.0475 -47.76721,1.34308 -71.677476,3.25909 -24.60011,1.74911 2.562502,-14.78572 14.44382,-8.15814 19.283196,-0.21503 38.625216,1.42446 58.180336,0.98124 1.39209,0.33783 11.32139,-0.0831 8.16702,2.61602 z"
       id="path860"
       inkscape:connector-curvature="0" />
    <path
       style="fill:#cbcbcb;fill-opacity:0.74107139;stroke:none"
       d="m 101.9541,161.39784 c -6.576978,-11.90553 -39.350846,6.428 -17.805079,-5.95316 6.400064,-0.58243 13.603072,1.34553 17.805079,5.95316 z"
       id="path862"
       inkscape:connector-curvature="0" />
    <path
       style="fill:#cbcbcb;fill-opacity:0.74107139;stroke:none"
       d="m 76.704707,159.32561 c 20.232659,-4.71147 41.416403,-1.32782 61.635813,0.50678 21.63118,-0.3715 -10.49467,2.32981 -17.93699,-0.72125 -14.46411,-0.51707 -30.524568,-1.13508 -43.698823,0.21447 z"
       id="path864"
       inkscape:connector-curvature="0" />
    <path
       style="fill:#cbcbcb;fill-opacity:0.74107139;stroke:none"
       d="m 143.44203,239.70517 c -7.12596,2.60964 -39.48004,6.96439 -15.31025,4.79686 5.33542,-2.92213 31.55687,-2.10192 16.31738,-4.24587 l -1.00713,-0.55099 z m -25.80515,5.9729 -0.0944,0.0393 0.0944,-0.0393 z m 0.0751,0.0683 0.22696,0.17754 -0.22696,-0.17754 z m -0.11263,-0.10234 -0.35764,-0.23215 0.35764,0.23215 z m 26.36858,-4.77833 -0.33806,0.17066 0.33806,-0.17066 z m -69.001598,3.41304 c -14.93626,1.68346 12.445491,1.88084 0,0 z m 40.078738,0.75088 0.4862,0.27058 -0.4862,-0.27058 z m -36.623027,0.30717 -0.02102,0.21271 0.02102,-0.21271 z m 34.143927,0.17066 -0.25091,0.0753 0.25091,-0.0753 z m -9.54077,3.41309 c -8.137817,-0.13422 6.15022,1.62772 0,0 z"
       id="path866"
       inkscape:connector-curvature="0" />
    <path
       style="fill:#cbcbcb;fill-opacity:0.74107139;stroke:none"
       d="m 80.569277,236.63338 c -14.06173,-5.30258 -24.941479,18.50846 -3.807006,8.36911 17.372546,-2.49235 34.952399,0.21106 52.218779,2.03447 8.77851,3.43224 28.76573,-7.18084 9.62613,-1.84432 -22.05861,1.69542 -44.046275,-6.26831 -65.858448,-0.46843 -19.184377,0.20701 9.983465,-10.13638 16.801108,-6.20739 15.31588,-0.17699 45.25374,2.57044 52.43802,1.57237 -20.27918,-3.77854 -41.08558,-1.20211 -61.418583,-3.45581 z m 33.395643,8.39621 0.22137,0.077 -0.22137,-0.077 z m -38.779522,0.51196 0.313012,-0.0907 -0.313012,0.0907 z m 0.780272,-0.20479 -0.185292,0.058 0.185292,-0.058 z"
       id="path868"
       inkscape:connector-curvature="0" />
    <path
       style="fill:#e9e9e9;fill-opacity:0.90178573;stroke:none;filter:url(#filter4285)"
       d="m 103.11026,22.763232 c -11.602432,-5.467746 9.73273,-28.2739597 -1.204,-10.627219 -6.526037,3.524474 6.80232,7.398461 1.204,10.627219 z"
       id="path870"
       inkscape:connector-curvature="0" />
    <path
       style="fill:#e9e9e9;fill-opacity:0.90178573;stroke:none;filter:url(#filter4281)"
       d="M 93.029463,22.87606 C 98.018488,18.009337 103.02368,9.4589085 92.049699,7.3839993 94.479371,0.92326496 101.67725,1.7668033 93.588771,7.2797826 107.02315,10.991746 99.72811,17.241477 93.029463,22.87606 z"
       id="path872"
       inkscape:connector-curvature="0" />
    <path
       style="fill:#e9e9e9;fill-opacity:0.90178573;stroke:none;filter:url(#filter4277)"
       d="m 119.21085,21.147544 c -4.80685,-9.08719 20.99106,-28.8531601 5.35476,-12.3698213 -3.44132,3.4822193 -1.79274,9.0738533 -5.35476,12.3698213 z"
       id="path874"
       inkscape:connector-curvature="0" />
    <text
       xml:space="preserve"
       style="font-size:28.44529533px;font-style:normal;font-variant:normal;font-weight:normal;font-stretch:normal;text-align:center;line-height:107.00000525%;letter-spacing:0px;word-spacing:0px;writing-mode:lr-tb;text-anchor:middle;fill:#ffffff;fill-opacity:1;stroke:none;display:inline;font-family:Nimbus Mono L;-inkscape-font-specification:Nimbus Mono L"
       x="105.99905"
       y="288.32233"
       id="text22735"
       sodipodi:linespacing="107.00001%"><tspan
         sodipodi:role="line"
         x="105.99905"
         y="288.32233"
         id="tspan4216">The Moon</tspan></text>
    <path
       sodipodi:type="arc"
       style="fill:#cbcbcb;fill-opacity:0.74107139;stroke:none"
       id="path4156"
       sodipodi:cx="300.30093"
       sodipodi:cy="186.50107"
       sodipodi:rx="14.872648"
       sodipodi:ry="36.074081"
       d="m 315.17358,186.50107 a 14.872648,36.074081 0 1 1 -29.74529,0 14.872648,36.074081 0 1 1 29.74529,0 z" />
    <path
       sodipodi:type="arc"
       style="fill:#cbcbcb;fill-opacity:0.74107139;stroke:none"
       id="path4158"
       sodipodi:cx="350.93121"
       sodipodi:cy="202.63947"
       sodipodi:rx="11.708255"
       sodipodi:ry="6.645226"
       d="m 362.63947,202.63947 a 11.708255,6.645226 0 1 1 -23.41651,0 11.708255,6.645226 0 1 1 23.41651,0 z" />
    <path
       sodipodi:type="arc"
       style="fill:#cbcbcb;fill-opacity:0.74107139;stroke:none"
       id="path4160"
       sodipodi:cx="289.85843"
       sodipodi:cy="176.05856"
       sodipodi:rx="2.5315146"
       sodipodi:ry="0.94931799"
       d="m 292.38994,176.05856 a 2.5315146,0.94931799 0 1 1 -5.06303,0 2.5315146,0.94931799 0 1 1 5.06303,0 z" />
    <path
       sodipodi:type="arc"
       style="fill:#cbcbcb;fill-opacity:0.74107139;stroke:none"
       id="path4162"
       sodipodi:cx="299.66803"
       sodipodi:cy="200.42439"
       sodipodi:rx="0.94931799"
       sodipodi:ry="8.860301"
       d="m 300.61735,200.42439 a 0.94931799,8.860301 0 1 1 -1.89864,0 0.94931799,8.860301 0 1 1 1.89864,0 z" />
    <path
       sodipodi:type="arc"
       style="fill:#cbcbcb;fill-opacity:0.74107139;stroke:none"
       id="path4164"
       sodipodi:cx="327.19827"
       sodipodi:cy="217.19568"
       sodipodi:rx="12.657573"
       sodipodi:ry="24.998707"
       d="m 339.85585,217.19568 a 12.657573,24.998707 0 1 1 -25.31515,0 12.657573,24.998707 0 1 1 25.31515,0 z" />
    <path
       sodipodi:type="arc"
       style="fill:#cbcbcb;fill-opacity:0.74107139;stroke:none"
       id="path4166"
       sodipodi:cx="346.50107"
       sodipodi:cy="223.52446"
       sodipodi:rx="19.935678"
       sodipodi:ry="16.138405"
       d="m 366.43675,223.52446 a 19.935678,16.138405 0 1 1 -39.87136,0 19.935678,16.138405 0 1 1 39.87136,0 z" />
    <flowRoot
       xml:space="preserve"
       id="flowRoot4218"
       style="fill:black;stroke:none;stroke-opacity:1;stroke-width:1px;stroke-linejoin:miter;stroke-linecap:butt;fill-opacity:1;font-family:Sans;font-style:normal;font-weight:normal;font-size:28.44529533000000043px;line-height:107.00000525000000096%;letter-spacing:0px;word-spacing:0px;-inkscape-font-specification:Sans;font-stretch:normal;font-variant:normal;text-anchor:start;text-align:start;writing-mode:lr"><flowRegion
         id="flowRegion4220"><rect
           id="rect4222"
           width="33.542568"
           height="73.413925"
           x="293.02283"
           y="248.52316" /></flowRegion><flowPara
         id="flowPara4224" /></flowRoot>    <flowRoot
       xml:space="preserve"
       id="flowRoot4226"
       style="fill:black;stroke:none;stroke-opacity:1;stroke-width:1px;stroke-linejoin:miter;stroke-linecap:butt;fill-opacity:1;font-family:Sans;font-style:normal;font-weight:normal;font-size:28.44529533000000043px;line-height:107.00000525000000096%;letter-spacing:0px;word-spacing:0px;-inkscape-font-specification:Sans;font-stretch:normal;font-variant:normal;text-anchor:start;text-align:start;writing-mode:lr"><flowRegion
         id="flowRegion4228"><rect
           id="rect4230"
           width="63.920746"
           height="103.15923"
           x="286.69403"
           y="152.9585" /></flowRegion><flowPara
         id="flowPara4232" /></flowRoot>    <path
       style="fill:#ffff00;fill-opacity:1;stroke:none;filter:url(#filter4325)"
       d="m 92.072958,230.53288 c -1.132209,-1.36423 0.0465,-3.35378 4.900561,-8.27167 3.170341,-3.21203 4.191421,-3.90859 5.053371,-3.44729 1.49331,0.79919 10.02732,1.51976 8.79679,0.74276 -0.51794,-0.32705 -1.9305,-0.80431 -3.13903,-1.06057 -1.20852,-0.25627 -2.84402,-0.70967 -3.63445,-1.00757 l -1.43713,-0.54162 2.06494,-2.81715 c 1.73282,-2.36405 2.32507,-2.76477 3.68234,-2.49149 2.00403,0.4035 4.88047,-0.63394 5.3821,-1.94117 0.20646,-0.53802 0.26035,-1.09323 0.11977,-1.23381 -0.14058,-0.14058 -2.31732,0.0504 -4.8372,0.42441 -3.97512,0.58999 -4.71558,0.54602 -5.5938,-0.33219 -0.93105,-0.93106 -0.89911,-1.13257 0.39853,-2.51384 0.77589,-0.82591 2.33963,-2.0019 3.47497,-2.61332 3.1842,-1.71481 5.84656,-6.17886 6.71294,-11.2558 1.14535,-6.71164 0.219,-15.6685 -2.26008,-21.85259 -1.35823,-3.38811 9.0736,2.04547 13.86688,7.22278 7.79377,8.4182 10.24816,18.41665 6.93531,28.2523 -2.3903,7.09663 -5.08337,11.4992 -10.17416,16.63242 -3.21965,3.2465 -5.74889,5.13597 -8.82253,6.59089 -4.05829,1.92102 -4.78544,2.05225 -12.50185,2.25624 -6.765641,0.17886 -8.331499,0.0497 -8.988272,-0.74172 z m 27.802552,-30.93017 c 1.07486,-0.41246 1.33583,-1.84421 0.43737,-2.39949 -0.71328,-0.44083 -4.46676,0.85353 -4.46676,1.54033 0,0.44476 0.98476,0.88407 2.61683,1.1674 0.23073,0.04 0.86638,-0.0987 1.41256,-0.30824 z"
       id="path3521"
       inkscape:connector-curvature="0" />
    <path
       style="fill:url(#radialGradient4339);fill-opacity:1;stroke:none"
       d="m 64.338517,237.10677 c -1.083493,-5.11401 -0.965387,-19.25177 0.242393,-29.01513 2.610565,-21.10311 2.976062,-25.84537 2.989851,-38.79279 0.0079,-7.45652 -0.179178,-14.4308 -0.41582,-15.49838 l -0.430258,-1.94108 2.361235,1.81436 c 2.993189,2.29994 7.121311,2.39344 15.395518,0.34867 5.502268,-1.35976 7.156408,-1.43039 22.885504,-0.97725 19.5084,0.56202 27.48581,-0.1176 38.73408,-3.29991 4.03699,-1.14212 8.08312,-2.0766 8.9914,-2.0766 1.97312,0 2.10468,-2.24659 -1.7275,29.50063 -2.3337,19.3333 -2.56719,22.62085 -2.49912,35.1875 0.0811,14.96256 -0.40777,19.14224 -2.8423,24.30287 l -1.57213,3.33255 -3.21736,-0.3807 c -1.76956,-0.20938 -4.77119,-0.66433 -6.6703,-1.011 -1.89912,-0.34667 -13.76464,-0.96149 -26.36783,-1.36627 -12.6032,-0.40477 -24.983562,-1.04961 -27.511922,-1.43297 -8.535693,-1.2942 -12.288157,-0.44501 -15.433108,3.49251 -0.657779,0.82355 -1.406511,1.49735 -1.663848,1.49735 -0.257337,0 -0.819155,-1.65796 -1.248485,-3.68436 z m 43.455163,-5.16523 c 5.88631,-1.4126 10.60748,-4.23968 15.42932,-9.2392 4.94072,-5.12278 8.23995,-10.66604 10.75029,-18.06232 2.46409,-7.26001 2.91565,-12.00564 1.744,-18.3284 -2.22287,-11.99565 -9.56021,-21.81305 -20.481,-27.40371 -3.81117,-1.95104 -4.11247,-2.00286 -4.86549,-0.8368 -1.15807,1.79326 -0.98854,7.6117 0.45288,15.54388 1.77102,9.746 1.66186,14.12275 -0.47085,18.87789 -1.51119,3.36937 -2.02471,3.91682 -4.11824,4.39033 -4.08077,0.923 -4.82799,1.68679 -4.82799,4.93506 0,1.93041 0.36265,3.21803 1.07168,3.80508 0.99268,0.82188 0.94964,1.0961 -0.58379,3.71981 -0.91051,1.55789 -4.006003,4.80876 -6.87888,7.22416 -2.872877,2.41541 -6.421642,5.41511 -7.886144,6.66599 -2.889864,2.46837 -4.035654,5.2209 -2.601635,6.24992 0.47835,0.34326 1.858522,0.79594 3.067047,1.00596 1.208526,0.21002 4.316163,0.82323 6.90586,1.36267 6.165062,1.28423 8.256442,1.29834 13.292942,0.0897 l 0,0 z"
       id="path3523"
       inkscape:connector-curvature="0" />
    <path
       style="fill:#3737ff;fill-opacity:1;stroke:none;opacity:1;filter:url(#filter4093)"
       d="m 66.076393,252.41032 c -3.392287,-0.93302 -7.85339,-4.10135 -9.672932,-6.86983 -1.217952,-1.85313 -1.217092,-1.87784 0.262512,-7.54198 1.137603,-4.35491 1.692617,-9.13007 2.375287,-20.43618 0.489951,-8.11439 1.048212,-16.16599 1.240581,-17.89246 0.192369,-1.72646 0.614479,-8.78185 0.938023,-15.67863 0.635997,-13.55716 0.08943,-26.72526 -1.642104,-39.56196 -0.597328,-4.42829 -0.862752,-9.16165 -0.644687,-11.49686 0.921364,-9.86667 8.351399,-18.39741 24.180835,-27.76303 l 5.809389,-3.43717 -0.48912,-3.139028 c -0.269016,-1.726465 -0.35795,-6.529177 -0.197629,-10.672693 0.815966,-21.088912 0.264401,-24.913198 -4.325969,-29.994189 -2.489088,-2.755123 -2.604568,-3.588649 -1.71554,-12.382681 0.409547,-4.051134 0.304299,-5.035213 -0.753815,-7.048263 -1.785296,-3.396501 -0.87666,-3.910409 6.045245,-3.419078 3.363383,0.23874 8.666292,0.03539 13.635751,-0.5229 18.30132,-2.056031 25.41458,-0.341455 28.57942,6.888766 1.92208,4.391069 1.74684,6.533902 -0.82315,10.065627 -4.32606,5.944962 -5.45044,12.474606 -5.47931,31.820258 -0.0115,7.679355 0.2529,13.708314 0.64692,14.753429 1.36467,3.619672 4.48648,5.921562 14.71492,10.850132 5.52469,2.66207 10.93111,5.59025 12.01428,6.50708 2.4572,2.07983 3.88022,5.08857 7.42527,15.69939 3.53011,10.56612 5.74804,21.48421 6.65231,32.74689 0.6226,7.75446 0.54321,10.56325 -0.67428,23.85661 -0.89769,9.80159 -1.48797,21.86891 -1.68901,34.5293 -0.30458,19.18141 -0.33099,19.50015 -1.83169,22.11012 -1.76379,3.06751 -5.49668,5.83524 -9.96857,7.39112 -7.05791,2.45562 -23.80571,1.72385 -36.65285,-1.60148 -6.1738,-1.59802 -11.41102,-1.58689 -20.47745,0.0435 -18.740107,3.37001 -22.207475,3.64709 -27.482637,2.19619 l 0,0 z m 6.455299,-5.38889 c 9.626314,-2.96519 21.992029,-3.28134 42.216358,-1.07934 14.8473,1.61655 24.21629,1.81266 27.70653,0.57994 2.57198,-0.9084 7.32054,-5.38507 9.07569,-8.55602 0.88604,-1.60081 1.01532,-3.61286 0.8615,-13.40892 -0.19513,-12.42766 0.18539,-17.16257 3.00918,-37.44333 4.15709,-29.85661 3.91848,-41.64872 -1.03608,-51.20288 -3.07088,-5.92176 -7.78549,-11.2197 -17.8212,-20.02614 -4.8517,-4.25742 -10.33619,-9.46627 -12.18776,-11.57524 l -3.36649,-3.83449 -0.66595,-14.124823 c -0.36627,-7.768654 -0.8307,-19.764712 -1.03206,-26.657906 -0.22498,-7.701586 -0.65711,-13.147005 -1.12095,-14.125623 -1.13894,-2.402952 -5.63019,-4.277756 -12.05532,-5.03231 -3.10764,-0.364955 -6.369623,-0.809538 -7.248858,-0.987964 -1.347346,-0.273421 -1.801809,0.04905 -2.891444,2.05166 -2.421412,4.450249 -3.047039,8.181171 -2.977669,17.757305 0.06732,9.293477 0.45285,18.62459 1.23255,29.832037 0.496879,7.142153 -0.142149,11.155714 -2.605107,16.361974 -3.110991,6.5761 -10.106255,13.08374 -16.820405,15.6479 -2.41055,0.92059 -2.922326,1.49467 -4.657205,5.22413 -5.069036,10.89688 -6.168233,19.81146 -5.091715,41.29425 0.630084,12.57383 0.593418,15.49715 -0.275601,21.97319 -1.211281,9.0266 -2.092391,19.79186 -2.923682,35.72107 -0.869198,16.65555 -0.832698,19.14807 0.280407,19.14807 0.500149,0 1.671452,0.70628 2.602896,1.56951 1.857845,1.72179 4.223712,1.99321 7.792385,0.89395 z"
       id="path3531"
       inkscape:connector-curvature="0" />
    <path
       style="fill:#ffaaaa;fill-opacity:0.74107139000000000;stroke:none;display:inline"
       d="m 104.03358,123.95131 c -5.960873,6.91326 -19.978523,23.36887 -7.573753,6.57026 1.88696,-2.17811 3.574923,-8.0617 7.573753,-6.57026 z"
       id="path848-3"
       inkscape:connector-curvature="0" />
    <path
       style="fill:#ffaaaa;fill-opacity:0.74107139000000000;stroke:none;display:inline"
       d="m 91.348587,128.32016 c 6.59768,3.3303 20.999243,17.87978 6.81052,6.55536 -0.94443,-2.56747 -9.246,-3.3218 -6.81052,-6.55536 z"
       id="path850-8"
       inkscape:connector-curvature="0" />
    <path
       style="fill:#ffaaaa;fill-opacity:0.74107139000000000;stroke:none;display:inline"
       d="m 120.25609,126.70949 c -3.72711,6.30448 -18.19942,24.49285 -6.91439,6.88209 2.74532,-1.11885 3.12638,-8.82059 6.91439,-6.88209 z"
       id="path852-5"
       inkscape:connector-curvature="0" />
    <path
       style="fill:#ffaaaa;fill-opacity:0.74107139000000000;stroke:none;display:inline"
       d="m 111.94516,129.45483 c 6.49079,5.9553 15.14982,21.86496 3.74673,6.95112 -0.48239,-1.47014 -7.48027,-5.22404 -3.74673,-6.95112 z"
       id="path854-1"
       inkscape:connector-curvature="0" />
    <path
       style="fill:#ffaaaa;fill-opacity:0.74107139000000000;stroke:none;display:inline"
       d="m 137.41521,133.57472 c -7.42351,6.04908 -21.18439,21.16635 -8.01008,5.01871 1.83845,-1.71902 4.88725,-7.94293 8.01008,-5.01871 z"
       id="path856-6"
       inkscape:connector-curvature="0" />
    <path
       style="fill:#ffaaaa;fill-opacity:0.74107139000000000;stroke:none;display:inline"
       d="m 125.58998,135.48714 c 6.80299,5.66941 18.95956,22.07944 5.45192,7.51081 -1.08405,-2.24139 -7.41911,-4.38862 -5.45192,-7.51081 z"
       id="path858-7"
       inkscape:connector-curvature="0" />
  </g>
</svg>
